<svg width="22" height="21" viewBox="0 0 22 21" fill="none" xmlns="http://www.w3.org/2000/svg">
<path d="M6.11111 13.5882H17.1111C17.7833 13.5882 18.3333 14.1441 18.3333 14.8235C18.3333 15.5029 17.7833 16.0588 17.1111 16.0588H4.88889C4.21667 16.0588 3.66667 15.5029 3.66667 14.8235V2.47059H1.22222C0.55 2.47059 0 1.91471 0 1.23529C0 0.555882 0.55 0 1.22222 0H4.88889C5.56111 0 6.11111 0.555882 6.11111 1.23529V3.70588H22L17.1111 12.3529H6.11111V13.5882ZM5.5 17.2941C6.51444 17.2941 7.33333 18.1218 7.33333 19.1471C7.33333 20.1724 6.51444 21 5.5 21C4.48556 21 3.66667 20.1724 3.66667 19.1471C3.66667 18.1218 4.48556 17.2941 5.5 17.2941ZM16.5 17.2941C17.5144 17.2941 18.3333 18.1218 18.3333 19.1471C18.3333 20.1724 17.5144 21 16.5 21C15.4856 21 14.6667 20.1724 14.6667 19.1471C14.6667 18.1218 15.4856 17.2941 16.5 17.2941Z" fill="#874331"/>
</svg>
