<?xml version="1.0" encoding="UTF-8"?>
<svg version="1.1" viewBox="0 0 1000 1012" xmlns="http://www.w3.org/2000/svg">
<g transform="translate(.88395 .40972)">
<svg width="1e3" height="1012" data-background-color="#444444" viewBox="0 0 244 247" xmlns="http://www.w3.org/2000/svg" xmlns:xlink="http://www.w3.org/1999/xlink">
<g transform="translate(-.21568 -.1)">
<svg width="244.43" height="247.2" viewBox="0 0 244.43135999999996 247.2">
<svg/>
<svg width="244.43" height="247.2" viewBox="0 0 244.43135999999996 247.2">
<g transform="translate(0 109.98)">
<svg width="244.43" height="27.239" viewBox="0 0 244.43135999999996 27.239107924528298">
<svg width="244.43" height="27.239" viewBox="0 0 244.43135999999996 27.239107924528298">
<svg width="244.43" height="27.239" viewBox="0 0 244.43135999999996 27.239107924528298">
<svg width="244.43" height="27.239" viewBox="0 0 244.43135999999996 27.239107924528298">
<svg width="244.43" height="27.239" viewBox="0 0 244.43135999999996 27.239107924528298">
<svg width="244.43" height="27.239" viewBox="0 0 244.43135999999996 27.239107924528298">
<g>
<svg width="244.43" height="27.239" viewBox="4.880000114440918 -32.43000030517578 296.7699890136719 33.08000183105469">
<path class="undefined-text-0" d="m4.88 0v-31.85h4.75v13.72h14.95v-13.72h4.72v31.85h-4.72v-14h-14.95v14h-4.75zm38.97 0h-4.75v-31.85h4.75v31.85zm9.77 0v-31.85h4.75v13.72h14.95v-13.72h4.73v31.85h-4.73v-14h-14.95v14h-4.75zm38.97 0h-4.75v-31.85h4.75v31.85zm21.08 0.65q-4.23 0-7.29-2.06-3.06-2.07-4.74-5.83-1.67-3.76-1.67-8.83 0-5.36 1.77-8.99 1.78-3.64 4.89-5.5 3.11-1.87 7.04-1.87 5.27 0 8.4 2.62 3.12 2.61 4.15 6.78l-5.08 0.98q-0.9-2.78-2.85-4.44t-4.62-1.66q-2.35 0-4.3 1.35t-3.13 4.04q-1.17 2.68-1.17 6.69 0 3.69 0.97 6.48 0.98 2.79 2.88 4.34t4.75 1.55q3.47 0 5.47-1.86 2-1.87 2-4.87h5.13q0 3.5-1.57 5.97-1.56 2.46-4.38 3.78-2.83 1.33-6.65 1.33zm19.77-32.5h4.75v27.7h13.72v4.15h-18.47v-31.85zm35.59 32.5q-4.07 0-7.25-1.85-3.17-1.85-4.98-5.53-1.82-3.67-1.82-9.17 0-5.6 1.82-9.26 1.81-3.67 4.98-5.47 3.18-1.8 7.25-1.8 4.1 0 7.29 1.83 3.19 1.82 5 5.51t1.81 9.19q0 5.55-1.81 9.24-1.81 3.68-5 5.5-3.19 1.81-7.29 1.81zm0-4.35q4.25 0 6.72-3.13 2.46-3.12 2.46-9.12 0-5.85-2.46-9.04-2.47-3.19-6.72-3.19-4.17 0-6.65 3.2-2.47 3.2-2.47 9.08 0 5.95 2.47 9.07 2.48 3.13 6.65 3.13zm28.08-24.05h-11.23v-4.1h25.1v4.1h-11.25l1.08-1.1v28.85h-4.75v-28.85l1.05 1.1zm19.02 27.75v-31.85h4.75v13.72h14.95v-13.72h4.73v31.85h-4.73v-14h-14.95v14h-4.75zm54.17 0h-20v-31.85h20v4.1h-15.25v9.7h14.35v4.1h-14.35v9.8h15.25v4.15zm19.27 0.65q-3.25 0-5.97-1.16-2.73-1.17-4.39-3.47t-1.74-5.75h4.65q0 2.08 1.02 3.4 1.01 1.33 2.68 1.97 1.68 0.63 3.7 0.63 2.05 0 3.63-0.62 1.57-0.63 2.44-1.68 0.86-1.05 0.86-2.4 0-1.82-1.13-2.93-1.12-1.12-3.42-1.89l-5.93-2.2q-3.82-1.43-5.82-3.29t-2-5.19q0-3.77 2.95-6.13 2.95-2.37 8.3-2.37 5.07 0 7.89 2.35 2.81 2.35 3.21 6.4h-4.68q-0.35-2.05-1.91-3.25t-4.51-1.2q-2.85 0-4.45 1.24t-1.6 3.11q0 1.55 1.01 2.48 1.01 0.92 3.16 1.67l6.75 2.48q3.48 1.22 5.43 3.3 1.95 2.07 1.95 5.27 0 2.7-1.4 4.78-1.4 2.07-4.1 3.26t-6.58 1.19z" fill='fill-current' data-fill-palette-color="primary"/>
</svg>
</g>
</svg>
</svg>
</svg>
</svg>
</svg>
</svg>
</g>
<path d="m0 103.98v-102.98h244.43v102.98h-2.456v-100.52h-239.52v100.52h-2.456m0 39.24v102.98h244.43v-102.98h-2.456v100.52h-239.52v-100.52h-2.456" fill='fill-current' stroke="transparent" data-fill-palette-color="primary"/>
</svg>
</svg>
<rect width="244.43" height="247.2" fill='fill-current' visibility="hidden"/>
</g>
</svg>
</g>
</svg>
